<?xml version="1.0" encoding="UTF-8" standalone="no"?>
<!-- Created with Inkscape (http://www.inkscape.org/) -->

<svg
   xmlns:dc="http://purl.org/dc/elements/1.1/"
   xmlns:cc="http://creativecommons.org/ns#"
   xmlns:rdf="http://www.w3.org/1999/02/22-rdf-syntax-ns#"
   xmlns:svg="http://www.w3.org/2000/svg"
   xmlns="http://www.w3.org/2000/svg"
   xmlns:sodipodi="http://sodipodi.sourceforge.net/DTD/sodipodi-0.dtd"
   xmlns:inkscape="http://www.inkscape.org/namespaces/inkscape"
   width="11.808776cm"
   height="6.4165702cm"
   viewBox="0 0 418.42119 227.35878"
   id="svg2"
   version="1.1"
   inkscape:version="0.91 r13725"
   sodipodi:docname="titillium_sample.svg">
  <defs
     id="defs4" />
  <sodipodi:namedview
     id="base"
     pagecolor="#ffffff"
     bordercolor="#666666"
     borderopacity="1.0"
     inkscape:pageopacity="0.0"
     inkscape:pageshadow="2"
     inkscape:zoom="1.4"
     inkscape:cx="158.14307"
     inkscape:cy="102.92726"
     inkscape:document-units="px"
     inkscape:current-layer="layer1"
     showgrid="false"
     fit-margin-top="0.5"
     units="cm"
     fit-margin-right="0.5"
     fit-margin-bottom="0.5"
     fit-margin-left="0.5"
     inkscape:window-width="1881"
     inkscape:window-height="1176"
     inkscape:window-x="39"
     inkscape:window-y="24"
     inkscape:window-maximized="1" />
  <metadata
     id="metadata7">
    <rdf:RDF>
      <cc:Work
         rdf:about="">
        <dc:format>image/svg+xml</dc:format>
        <dc:type
           rdf:resource="http://purl.org/dc/dcmitype/StillImage" />
        <dc:title></dc:title>
      </cc:Work>
    </rdf:RDF>
  </metadata>
  <g
     inkscape:label="Layer 1"
     inkscape:groupmode="layer"
     id="layer1"
     transform="translate(6.8193516,-128.94591)">
    <g
       style="font-style:normal;font-variant:normal;font-weight:normal;font-stretch:normal;font-size:40px;line-height:125%;font-family:'Source Sans Pro';-inkscape-font-specification:'Source Sans Pro';text-align:center;letter-spacing:0px;word-spacing:0px;text-anchor:middle;fill:#000000;fill-opacity:1;stroke:none;stroke-width:1px;stroke-linecap:butt;stroke-linejoin:miter;stroke-opacity:1"
       id="text4136"
       transform="translate(2.5237461,0)">
      <path
         d="m 22.977187,266.47958 4.6,0 0,8.52 c -1.039999,0.2 -3.719999,0.56 -5.719999,0.56 -6.4,0 -7.76,-3.76 -7.76,-11.44 0,-7.84 1.4,-11.56 7.799999,-11.56 3.64,0 8.600001,0.84 8.600001,0.84 l 0.119999,-2.56 c 0,0 -4.88,-1.04 -9.079999,-1.04 -8.32,0 -10.64,5.12 -10.64,14.32 0,8.96 2.24,14.16 10.719999,14.16 3.04,0 8.16,-0.8 9,-0.96 l 0,-13.6 -7.64,0 0,2.76 z"
         style="font-style:normal;font-variant:normal;font-weight:normal;font-stretch:normal;font-family:Titillium;-inkscape-font-specification:Titillium"
         id="path4190"
         inkscape:connector-curvature="0" />
      <path
         d="m 36.106563,277.87958 3,0 0,-14.68 c 0,0 3.519999,-1.96 7.279999,-2.72 l 0,-3.04 c -3.84,0.76 -7.319999,3.16 -7.319999,3.16 l 0,-2.72 -2.96,0 0,20 z"
         style="font-style:normal;font-variant:normal;font-weight:normal;font-stretch:normal;font-family:Titillium;-inkscape-font-specification:Titillium"
         id="path4192"
         inkscape:connector-curvature="0" />
      <path
         d="m 64.054687,263.91958 c 0,-4.36 -1.92,-6.44 -6.439999,-6.44 -3.440001,0 -7.840001,0.88 -7.840001,0.88 l 0.120001,2.28 c 0,0 4.76,-0.52 7.559999,-0.52 2.4,0 3.6,1 3.6,3.8 l 0,1.72 -6.28,0.6 c -4.119999,0.4 -6.119999,2.08 -6.119999,5.92 0,4.04 2,6.12 5.64,6.12 3.6,0 7.199999,-1.6 7.199999,-1.6 1.2,1.2 2.64,1.6 4.760001,1.6 l 0.119999,-2.36 c -1.28,-0.16 -2.24,-0.6 -2.32,-1.76 l 0,-10.24 z m -3,4 0,6.6 c 0,0 -3.32,1.24 -6.28,1.24 -2.04,0 -3.04,-1.36 -3.04,-3.68 0,-2.2 0.96,-3.36 3.4,-3.6 l 5.92,-0.56 z"
         style="font-style:normal;font-variant:normal;font-weight:normal;font-stretch:normal;font-family:Titillium;-inkscape-font-specification:Titillium"
         id="path4194"
         inkscape:connector-curvature="0" />
      <path
         d="m 68.812813,260.55958 11.199999,0 -11.199999,14.64 0,2.68 14.84,0 0,-2.68 -11.200001,0 11.200001,-14.64 0,-2.68 -14.84,0 0,2.68 z"
         style="font-style:normal;font-variant:normal;font-weight:normal;font-stretch:normal;font-family:Titillium;-inkscape-font-specification:Titillium"
         id="path4196"
         inkscape:connector-curvature="0" />
      <path
         d="m 95.459687,275.63958 c -3.92,0 -5.239999,-2.24 -5.239999,-6.52 l 13.200002,0 0.16,-2.28 c 0,-6.56 -2.72,-9.36 -8.040003,-9.36 -5.08,0 -8.36,2.92 -8.36,10.52 0,6.8 1.96,10.28 7.920001,10.28 3.239999,0 7.800002,-0.64 7.800002,-0.64 l -0.08,-2.36 c 0,0 -4.360003,0.36 -7.360003,0.36 z m -5.28,-8.92 c 0.04,-4.84 1.960001,-6.72 5.36,-6.72 3.52,0 5.040003,1.76 5.040003,6.72 l -10.400003,0 z"
         style="font-style:normal;font-variant:normal;font-weight:normal;font-stretch:normal;font-family:Titillium;-inkscape-font-specification:Titillium"
         id="path4198"
         inkscape:connector-curvature="0" />
      <path
         d="m 108.29406,277.87958 3,0 0,-14.68 c 0,0 3.52,-1.96 7.28,-2.72 l 0,-3.04 c -3.84,0.76 -7.32,3.16 -7.32,3.16 l 0,-2.72 -2.96,0 0,20 z"
         style="font-style:normal;font-variant:normal;font-weight:normal;font-stretch:normal;font-family:Titillium;-inkscape-font-specification:Titillium"
         id="path4200"
         inkscape:connector-curvature="0" />
      <path
         d="m 146.71031,277.87958 0,-2.76 -12.16,0 0,-24.92 -3.08,0 0,27.68 15.24,0 z"
         style="font-style:normal;font-variant:normal;font-weight:normal;font-stretch:normal;font-family:Titillium;-inkscape-font-specification:Titillium"
         id="path4202"
         inkscape:connector-curvature="0" />
      <path
         d="m 150.09094,277.87958 3,0 0,-20 -3,0 0,20 z m 0,-24.52 3,0 0,-3.48 -3,0 0,3.48 z"
         style="font-style:normal;font-variant:normal;font-weight:normal;font-stretch:normal;font-family:Titillium;-inkscape-font-specification:Titillium"
         id="path4204"
         inkscape:connector-curvature="0" />
      <path
         d="m 161.84094,277.87958 0,-16.24 c 0,0 2.76,-1.48 5.64,-1.48 3.72,0 4.32,1.96 4.32,7.24 l 0,10.48 2.96,0 0,-10.56 c 0,-7.12 -1.24,-9.84 -6.76,-9.84 -2.96,0 -6.2,1.8 -6.2,1.8 l 0,-1.4 -2.96,0 0,20 3,0 z"
         style="font-style:normal;font-variant:normal;font-weight:normal;font-stretch:normal;font-family:Titillium;-inkscape-font-specification:Titillium"
         id="path4206"
         inkscape:connector-curvature="0" />
      <path
         d="m 192.80531,257.87958 0,16.24 c 0,0 -2.52,1.48 -5.48,1.48 -3.72,0 -4.2,-1.8 -4.2,-7.32 l 0,-10.4 -3,0 0,10.44 c 0,7.36 1.16,9.96 6.76,9.96 2.92,0 5.92,-1.8 5.92,-1.8 l 0,1.4 3,0 0,-20 -3,0 z"
         style="font-style:normal;font-variant:normal;font-weight:normal;font-stretch:normal;font-family:Titillium;-inkscape-font-specification:Titillium"
         id="path4208"
         inkscape:connector-curvature="0" />
      <path
         d="m 199.57531,257.87958 6.28,10 -6.28,10 3.28,0 4.88,-7.8 4.84,7.8 3.28,0 -6.32,-10.08 6.36,-9.92 -3.28,0 -4.88,7.84 -4.88,-7.84 -3.28,0 z"
         style="font-style:normal;font-variant:normal;font-weight:normal;font-stretch:normal;font-family:Titillium;-inkscape-font-specification:Titillium"
         id="path4210"
         inkscape:connector-curvature="0" />
      <path
         d="m 229.98219,260.47958 0,-2.6 -6.36,0 0,-6.12 -2.96,0 0,6.12 -2.84,0 0,2.6 2.84,0 0,10.52 c 0,5.76 1.4,7.32 5.52,7.32 1.4,0 4.08,-0.44 4.08,-0.44 l -0.2,-2.48 c 0,0 -2.44,0.24 -3.56,0.24 -2.6,0 -2.88,-1.24 -2.88,-5.6 l 0,-9.56 6.36,0 z"
         style="font-style:normal;font-variant:normal;font-weight:normal;font-stretch:normal;font-family:Titillium;-inkscape-font-specification:Titillium"
         id="path4212"
         inkscape:connector-curvature="0" />
      <path
         d="m 247.80469,263.91958 c 0,-4.36 -1.92,-6.44 -6.44,-6.44 -3.44,0 -7.84,0.88 -7.84,0.88 l 0.12,2.28 c 0,0 4.76,-0.52 7.56,-0.52 2.4,0 3.6,1 3.6,3.8 l 0,1.72 -6.28,0.6 c -4.12,0.4 -6.12,2.08 -6.12,5.92 0,4.04 2,6.12 5.64,6.12 3.6,0 7.2,-1.6 7.2,-1.6 1.2,1.2 2.64,1.6 4.76,1.6 l 0.12,-2.36 c -1.28,-0.16 -2.24,-0.6 -2.32,-1.76 l 0,-10.24 z m -3,4 0,6.6 c 0,0 -3.32,1.24 -6.28,1.24 -2.04,0 -3.04,-1.36 -3.04,-3.68 0,-2.2 0.96,-3.36 3.4,-3.6 l 5.92,-0.56 z"
         style="font-style:normal;font-variant:normal;font-weight:normal;font-stretch:normal;font-family:Titillium;-inkscape-font-specification:Titillium"
         id="path4214"
         inkscape:connector-curvature="0" />
      <path
         d="m 261.48281,287.27958 c 5.64,0 8.88,-1.84 8.88,-6.36 0,-4.76 -2.04,-5.88 -7.72,-5.88 -4.52,0 -4.84,-0.24 -4.84,-1.84 0,-0.52 0.72,-2.28 0.72,-2.28 0.44,0.08 1.56,0.16 1.96,0.16 5.12,0 7.72,-1.56 7.72,-6.76 0,-2.12 -0.56,-3.24 -1.32,-4 l 3.8,0.08 0,-2.56 -5.92,0.16 c 0,0 -2.16,-0.52 -4.16,-0.52 -4.44,0 -7.48,1.92 -7.48,6.84 0,3.68 1.48,5.28 3.16,6.04 0,0 -1.36,2.4 -1.36,3.16 0,1.24 0.4,2.28 1.12,2.76 -2.08,1.56 -3.16,2.64 -3.16,4.96 0,4.64 2.28,6.04 8.6,6.04 z m 0.92,-9.6 c 3.64,0 4.92,0.32 4.92,3.36 0,2.64 -1.8,3.72 -5.8,3.72 -4.52,0 -5.68,-1 -5.68,-3.76 0,-1.56 0.56,-2.28 2.24,-3.52 0,0 2.92,0.2 4.32,0.2 z m -1.8,-9 c -3.12,0 -4.48,-1.2 -4.48,-4.36 0,-3.16 1.36,-4.4 4.48,-4.4 3.36,0 4.6,1.24 4.6,4.4 0,3.16 -1.24,4.36 -4.6,4.36 z"
         style="font-style:normal;font-variant:normal;font-weight:normal;font-stretch:normal;font-family:Titillium;-inkscape-font-specification:Titillium"
         id="path4216"
         inkscape:connector-curvature="0" />
      <path
         d="m 281.70969,275.63958 c -3.92,0 -5.24,-2.24 -5.24,-6.52 l 13.2,0 0.16,-2.28 c 0,-6.56 -2.72,-9.36 -8.04,-9.36 -5.08,0 -8.36,2.92 -8.36,10.52 0,6.8 1.96,10.28 7.92,10.28 3.24,0 7.8,-0.64 7.8,-0.64 l -0.08,-2.36 c 0,0 -4.36,0.36 -7.36,0.36 z m -5.28,-8.92 c 0.04,-4.84 1.96,-6.72 5.36,-6.72 3.52,0 5.04,1.76 5.04,6.72 l -10.4,0 z"
         style="font-style:normal;font-variant:normal;font-weight:normal;font-stretch:normal;font-family:Titillium;-inkscape-font-specification:Titillium"
         id="path4218"
         inkscape:connector-curvature="0" />
      <path
         d="m 320.13219,277.87958 0,-2.68 -13.24,0 7.04,-7.16 c 3.72,-3.6 5.52,-5.92 5.52,-9.88 0,-4.96 -2.8,-7.08 -8.36,-7.08 -3.84,0 -7.64,1.08 -7.64,1.08 l 0.24,2.56 c 0,0 3.92,-0.88 6.84,-0.88 3.8,0 5.76,1.12 5.76,4.64 0,3.12 -2.04,5.28 -5.32,8.68 l -7.72,8.12 0,2.6 16.88,0 z"
         style="font-style:normal;font-variant:normal;font-weight:normal;font-stretch:normal;font-family:Titillium;-inkscape-font-specification:Titillium"
         id="path4220"
         inkscape:connector-curvature="0" />
      <path
         d="m 334.07406,251.03958 c -6.08,0 -9.6,3.2 -9.6,14.08 0,10.16 3.6,13.16 9.64,13.16 6.04,0 9.6,-3.08 9.6,-13.2 0,-10.88 -3.4,-14.04 -9.64,-14.04 z m 0.04,2.76 c 4.4,0 6.44,2.4 6.44,11.28 0,8.28 -2.28,10.48 -6.44,10.48 -4.16,0 -6.44,-2.16 -6.44,-10.44 0,-9 2.12,-11.32 6.44,-11.32 z"
         style="font-style:normal;font-variant:normal;font-weight:normal;font-stretch:normal;font-family:Titillium;-inkscape-font-specification:Titillium"
         id="path4222"
         inkscape:connector-curvature="0" />
      <path
         d="m 349.61594,257.07958 1.4,2.32 6.8,-4.48 0,22.96 3.08,0 0,-26.4 -2.88,0 -8.4,5.6 z"
         style="font-style:normal;font-variant:normal;font-weight:normal;font-stretch:normal;font-family:Titillium;-inkscape-font-specification:Titillium"
         id="path4224"
         inkscape:connector-curvature="0" />
      <path
         d="m 378.87781,251.03958 c -5.76,0 -9.4,2.28 -9.4,6.84 0,3.28 1.36,4.84 4.12,6.2 -2.72,1.48 -4.56,2.96 -4.56,7.08 0,5.48 4.52,7.12 9.84,7.12 5.48,0 9.96,-1.76 9.96,-7.56 0,-3.8 -1.96,-5.36 -4.8,-6.64 3.08,-1.36 4.4,-2.76 4.4,-6.16 0,-4.64 -3.88,-6.88 -9.56,-6.88 z m 0,24.44 c -3.76,0 -6.56,-1.2 -6.56,-4.84 0,-2.96 1.6,-4.32 4.36,-5.08 l 4.2,0 c 2.64,0.76 4.68,1.76 4.68,4.84 0,3.88 -2.76,5.08 -6.68,5.08 z m 0.04,-21.64 c 3.88,0 6.24,1.28 6.24,4.44 0,2.44 -1.56,3.72 -4.28,4.6 l -4.2,0 c -2.6,-0.92 -3.92,-2.2 -3.92,-4.64 0,-3.16 2.32,-4.4 6.16,-4.4 z"
         style="font-style:normal;font-variant:normal;font-weight:normal;font-stretch:normal;font-family:Titillium;-inkscape-font-specification:Titillium"
         id="path4226"
         inkscape:connector-curvature="0" />
    </g>
    <g
       style="font-style:normal;font-variant:normal;font-weight:200;font-stretch:normal;font-size:40px;line-height:125%;font-family:Titillium;-inkscape-font-specification:'Titillium Ultra-Light';text-align:center;letter-spacing:0px;word-spacing:0px;text-anchor:middle;fill:#000000;fill-opacity:1;stroke:none;stroke-width:1px;stroke-linecap:butt;stroke-linejoin:miter;stroke-opacity:1"
       id="text4154"
       transform="translate(15.183748,0)">
      <path
         d="m 21.937184,162.38245 5.4,0 0,10.88 c 0,0 -4,0.8 -6.68,0.8 -6.56,0 -8.24,-6.36 -8.24,-12.92 0,-7.48 0.76,-13.16 8.24,-13.16 3.44,0 7.96,0.92 7.96,0.92 l 0.16,-1.24 c 0,0 -4.12,-1 -8.12,-1 -8.32,0 -9.76,6.16 -9.76,14.48 0,7.6 2.16,14.24 9.76,14.24 3,0 8.12,-1 8.12,-1 l 0,-13.32 -6.84,0 0,1.32 z"
         style="font-style:normal;font-variant:normal;font-weight:200;font-stretch:normal;font-family:Titillium;-inkscape-font-specification:'Titillium Ultra-Light'"
         id="path4229"
         inkscape:connector-curvature="0" />
      <path
         d="m 34.464059,175.02245 1.4,0 0,-15.52 c 0,0 3.96,-2.52 7.04,-3.28 l 0,-1.56 c -3.72,0.96 -7.04,3.56 -7.04,3.56 l 0,-3.2 -1.4,0 0,20 z"
         style="font-style:normal;font-variant:normal;font-weight:200;font-stretch:normal;font-family:Titillium;-inkscape-font-specification:'Titillium Ultra-Light'"
         id="path4231"
         inkscape:connector-curvature="0" />
      <path
         d="m 51.270309,175.38245 c 4,0 6.52,-4.36 6.52,-4.36 0,1.88 0.2,4.08 0.2,4.08 l 1.44,-0.08 c 0,0 -0.24,-2 -0.24,-4.4 l 0,-15.32 c 0,0 -4.32,-0.64 -6.12,-0.64 -6.4,0 -7.92,4.24 -7.92,10.88 0,6.36 1.48,9.84 6.12,9.84 z m 2.08,-19.44 c 1.2,0 4.44,0.48 4.44,0.48 l 0,12.56 c 0,0 -2.68,5.12 -6.36,5.12 -3.88,0 -4.8,-3.52 -4.8,-8.56 0,-6.16 1.12,-9.6 6.72,-9.6 z"
         style="font-style:normal;font-variant:normal;font-weight:200;font-stretch:normal;font-family:Titillium;-inkscape-font-specification:'Titillium Ultra-Light'"
         id="path4233"
         inkscape:connector-curvature="0" />
      <path
         d="m 63.769059,156.30245 11.92,0 -11.92,17.44 0,1.28 13.64,0 0,-1.28 -11.96,0 11.96,-17.48 0,-1.24 -13.64,0 0,1.28 z"
         style="font-style:normal;font-variant:normal;font-weight:200;font-stretch:normal;font-family:Titillium;-inkscape-font-specification:'Titillium Ultra-Light'"
         id="path4235"
         inkscape:connector-curvature="0" />
      <path
         d="m 87.927809,174.10245 c -3.92,0 -5.4,-3.08 -5.4,-8.08 l 0,-0.52 2.56,0 c 6.96,0 9.76,-1.44 9.76,-6.04 0,-3.32 -2.52,-4.76 -5.88,-4.76 -5.36,0 -7.92,3.32 -7.92,10.36 0,7.32 2,10.32 6.84,10.32 3.56,0 6.28,-1.04 6.28,-1.04 l -0.2,-1.16 c 0,0 -3.16,0.92 -6.04,0.92 z m -5.4,-9.88 c 0.04,-5.4 1.92,-8.24 6.4,-8.24 2.64,0 4.48,0.92 4.48,3.48 0,3.76 -2.28,4.76 -8.36,4.76 l -2.52,0 z"
         style="font-style:normal;font-variant:normal;font-weight:200;font-stretch:normal;font-family:Titillium;-inkscape-font-specification:'Titillium Ultra-Light'"
         id="path4237"
         inkscape:connector-curvature="0" />
      <path
         d="m 99.620309,175.02245 1.400001,0 0,-15.52 c 0,0 3.96,-2.52 7.04,-3.28 l 0,-1.56 c -3.72,0.96 -7.04,3.56 -7.04,3.56 l 0,-3.2 -1.400001,0 0,20 z"
         style="font-style:normal;font-variant:normal;font-weight:200;font-stretch:normal;font-family:Titillium;-inkscape-font-specification:'Titillium Ultra-Light'"
         id="path4239"
         inkscape:connector-curvature="0" />
      <path
         d="m 134.91593,175.02245 0,-1.32 -12.4,0 0,-26.68 -1.44,0 0,28 13.84,0 z"
         style="font-style:normal;font-variant:normal;font-weight:200;font-stretch:normal;font-family:Titillium;-inkscape-font-specification:'Titillium Ultra-Light'"
         id="path4241"
         inkscape:connector-curvature="0" />
      <path
         d="m 138.44843,175.02245 1.4,0 0,-20 -1.4,0 0,20 z m -0.04,-25.6 1.48,0 0,-2.32 -1.48,0 0,2.32 z"
         style="font-style:normal;font-variant:normal;font-weight:200;font-stretch:normal;font-family:Titillium;-inkscape-font-specification:'Titillium Ultra-Light'"
         id="path4243"
         inkscape:connector-curvature="0" />
      <path
         d="m 147.19218,175.02245 0,-14.44 c 0,0 3.12,-4.64 6.4,-4.64 3.28,0 4.56,2.36 4.56,7.12 l 0,11.96 1.4,0 0,-12.52 c 0,-5.24 -1.8,-7.84 -5.88,-7.84 -3.56,0 -6.48,4.08 -6.48,4.08 l 0,-3.72 -1.4,0 0,20 1.4,0 z"
         style="font-style:normal;font-variant:normal;font-weight:200;font-stretch:normal;font-family:Titillium;-inkscape-font-specification:'Titillium Ultra-Light'"
         id="path4245"
         inkscape:connector-curvature="0" />
      <path
         d="m 177.52343,155.02245 0,14.44 c 0,0 -3.12,4.64 -6.4,4.64 -3.28,0 -4.56,-2.36 -4.56,-7.12 l 0,-11.96 -1.4,0 0,12.12 c 0,5.64 1.72,8.24 5.88,8.24 3.56,0 6.48,-4.08 6.48,-4.08 l 0,3.72 1.4,0 0,-20 -1.4,0 z"
         style="font-style:normal;font-variant:normal;font-weight:200;font-stretch:normal;font-family:Titillium;-inkscape-font-specification:'Titillium Ultra-Light'"
         id="path4247"
         inkscape:connector-curvature="0" />
      <path
         d="m 183.01468,155.02245 6.2,10.08 -6.12,9.92 1.48,0 5.4,-8.8 5.48,8.8 1.52,0 -6.2,-9.96 6.24,-10.04 -1.48,0 -5.48,8.96 -5.52,-8.96 -1.52,0 z"
         style="font-style:normal;font-variant:normal;font-weight:200;font-stretch:normal;font-family:Titillium;-inkscape-font-specification:'Titillium Ultra-Light'"
         id="path4249"
         inkscape:connector-curvature="0" />
      <path
         d="m 210.10468,156.30245 0,-1.28 -6.44,0 0,-6.48 -1.4,0 0,6.48 -2.96,0 0,1.28 2.96,0 0,13.44 c 0,3.44 1.2,5.64 4.8,5.64 1.32,0 3.48,-0.32 3.48,-0.32 l -0.08,-1.24 c 0,0 -2.28,0.28 -3.36,0.28 -2.44,0 -3.44,-1.6 -3.44,-4.4 l 0,-13.4 6.44,0 z"
         style="font-style:normal;font-variant:normal;font-weight:200;font-stretch:normal;font-family:Titillium;-inkscape-font-specification:'Titillium Ultra-Light'"
         id="path4251"
         inkscape:connector-curvature="0" />
      <path
         d="m 219.31718,175.38245 c 4,0 6.52,-4.36 6.52,-4.36 0,1.88 0.2,4.08 0.2,4.08 l 1.44,-0.08 c 0,0 -0.24,-2 -0.24,-4.4 l 0,-15.32 c 0,0 -4.32,-0.64 -6.12,-0.64 -6.4,0 -7.92,4.24 -7.92,10.88 0,6.36 1.48,9.84 6.12,9.84 z m 2.08,-19.44 c 1.2,0 4.44,0.48 4.44,0.48 l 0,12.56 c 0,0 -2.68,5.12 -6.36,5.12 -3.88,0 -4.8,-3.52 -4.8,-8.56 0,-6.16 1.12,-9.6 6.72,-9.6 z"
         style="font-style:normal;font-variant:normal;font-weight:200;font-stretch:normal;font-family:Titillium;-inkscape-font-specification:'Titillium Ultra-Light'"
         id="path4253"
         inkscape:connector-curvature="0" />
      <path
         d="m 239.45593,184.58245 c 4.96,0 8.08,-2.8 8.08,-6.96 0,-4.16 -2.56,-5.08 -6.64,-5.08 -3.76,0 -4.24,-0.56 -4.24,-1.76 0,-1.12 0.96,-2.96 0.96,-2.96 0,0 0.4,0.08 1.08,0.08 4.36,0 6.72,-2.4 6.72,-6.56 0,-2.08 -0.76,-4.08 -1.92,-5 l 4.36,0 0,-1.28 -5.68,0.08 c 0,0 -1.44,-0.48 -3.4,-0.48 -4.08,0 -6.32,2.64 -6.32,6.68 0,3.2 1.08,5.52 3.84,6.28 0,0 -1.08,1.92 -1.08,3.2 0,0.88 0.12,1.48 0.88,2.08 -1.84,1.12 -3.96,3.68 -3.96,6.2 0,4.68 3.2,5.48 7.32,5.48 z m 1.28,-10.72 c 3.24,0 5.36,0.4 5.36,3.76 0,3.64 -2.56,5.68 -6.64,5.68 -3.56,0 -5.88,-0.72 -5.88,-4.2 0,-2.4 2.04,-4.76 3.92,-5.56 0.72,0.2 2.08,0.32 3.24,0.32 z m -2.04,-7.32 c -3.4,0 -4.8,-2 -4.8,-5.2 0,-3.2 1.52,-5.4 4.88,-5.4 3.8,0 5.2,2.08 5.2,5.4 0,3.2 -1.4,5.2 -5.28,5.2 z"
         style="font-style:normal;font-variant:normal;font-weight:200;font-stretch:normal;font-family:Titillium;-inkscape-font-specification:'Titillium Ultra-Light'"
         id="path4255"
         inkscape:connector-curvature="0" />
      <path
         d="m 257.77156,174.10245 c -3.92,0 -5.4,-3.08 -5.4,-8.08 l 0,-0.52 2.56,0 c 6.96,0 9.76,-1.44 9.76,-6.04 0,-3.32 -2.52,-4.76 -5.88,-4.76 -5.36,0 -7.92,3.32 -7.92,10.36 0,7.32 2,10.32 6.84,10.32 3.56,0 6.28,-1.04 6.28,-1.04 l -0.2,-1.16 c 0,0 -3.16,0.92 -6.04,0.92 z m -5.4,-9.88 c 0.04,-5.4 1.92,-8.24 6.4,-8.24 2.64,0 4.48,0.92 4.48,3.48 0,3.76 -2.28,4.76 -8.36,4.76 l -2.52,0 z"
         style="font-style:normal;font-variant:normal;font-weight:200;font-stretch:normal;font-family:Titillium;-inkscape-font-specification:'Titillium Ultra-Light'"
         id="path4257"
         inkscape:connector-curvature="0" />
      <path
         d="m 295.01218,175.02245 0,-1.32 -15,0 8.92,-9.12 c 3.28,-3.36 5.24,-5.8 5.24,-9.6 0,-5 -3.24,-6.76 -8.08,-6.76 -3.32,0 -7.76,1.04 -7.76,1.04 l 0.2,1.32 c 0,0 4.76,-1.04 7.52,-1.04 4.04,0 6.68,1.4 6.68,5.44 0,3.52 -2,5.72 -5.24,9.12 l -9.36,9.72 0,1.2 16.88,0 z"
         style="font-style:normal;font-variant:normal;font-weight:200;font-stretch:normal;font-family:Titillium;-inkscape-font-specification:'Titillium Ultra-Light'"
         id="path4259"
         inkscape:connector-curvature="0" />
      <path
         d="m 308.91406,148.22245 c -5.36,0 -9,2.72 -9,14.16 0,6.56 1.48,13 9.04,13 7.72,0 9,-6.6 9,-13.04 0,-11.44 -3.44,-14.12 -9.04,-14.12 z m 0,1.32 c 4.96,0 7.6,2.6 7.6,12.84 0,5.8 -0.96,11.68 -7.56,11.68 -6.84,0 -7.6,-6.68 -7.6,-11.6 0,-10.44 2.72,-12.92 7.56,-12.92 z"
         style="font-style:normal;font-variant:normal;font-weight:200;font-stretch:normal;font-family:Titillium;-inkscape-font-specification:'Titillium Ultra-Light'"
         id="path4261"
         inkscape:connector-curvature="0" />
      <path
         d="m 325.45593,154.02245 0.68,1.16 7.36,-4.88 0,24.72 1.44,0 0,-26.44 -1.24,0 -8.24,5.44 z"
         style="font-style:normal;font-variant:normal;font-weight:200;font-stretch:normal;font-family:Titillium;-inkscape-font-specification:'Titillium Ultra-Light'"
         id="path4263"
         inkscape:connector-curvature="0" />
      <path
         d="m 353.71781,148.22245 c -5.76,0 -9.24,2 -9.24,6.56 0,3.6 1.96,5.24 5.04,6.32 -3.12,1.28 -5.48,2.76 -5.48,7.2 0,5.4 4.52,7.08 9.68,7.08 5.44,0 9.8,-1.56 9.8,-7.52 0,-4.12 -2.6,-5.8 -5.92,-6.76 3.6,-1.04 5.52,-2.72 5.52,-6.28 0,-4.64 -3.64,-6.6 -9.4,-6.6 z m 0,25.84 c -4.56,0 -8.24,-1.36 -8.24,-5.8 0,-4.04 2.36,-5.6 5.84,-6.44 l 4.36,0 c 3.36,0.84 6.4,1.8 6.4,6.08 0,4.84 -3.52,6.16 -8.36,6.16 z m 0,-24.52 c 5,0 7.96,1.4 7.96,5.32 0,3.24 -2.32,4.8 -6,5.68 l -4.36,0 c -3.48,-0.96 -5.4,-2.48 -5.4,-5.72 0,-3.96 2.88,-5.28 7.8,-5.28 z"
         style="font-style:normal;font-variant:normal;font-weight:200;font-stretch:normal;font-family:Titillium;-inkscape-font-specification:'Titillium Ultra-Light'"
         id="path4265"
         inkscape:connector-curvature="0" />
    </g>
    <g
       style="font-style:normal;font-variant:normal;font-weight:normal;font-stretch:normal;font-size:40px;line-height:125%;font-family:'Source Sans Pro';-inkscape-font-specification:'Source Sans Pro';text-align:center;letter-spacing:0px;word-spacing:0px;text-anchor:middle;fill:#000000;fill-opacity:1;stroke:none;stroke-width:1px;stroke-linecap:butt;stroke-linejoin:miter;stroke-opacity:1"
       id="text4158"
       transform="translate(-2.9146655e-6,0)">
      <path
         d="m 23.217186,318.82817 3.4,0 0,6.68 c -0.48,0.12 -2.56,0.36 -4.36,0.36 -5.6,0 -6.76,-2.8 -6.76,-10.24 0,-7.72 1.4,-10.2 6.88,-10.2 3.64,0 8.48,0.64 8.48,0.64 l 0.16,-3.52 c 0,0 -5.12,-1.08 -9.32,-1.08 -8.16,0 -10.8,4.56 -10.8,14.16 0,9.08 2.24,14.12 10.96,14.12 3.32,0 8.8,-0.84 9.16,-0.92 l 0,-13.92 -7.8,0 0,3.92 z"
         style="font-style:normal;font-variant:normal;font-weight:600;font-stretch:normal;font-family:Titillium;-inkscape-font-specification:'Titillium Semi-Bold'"
         id="path4268"
         inkscape:connector-curvature="0" />
      <path
         d="m 36.068436,329.30817 4.36,0 0,-13.96 c 0,0 3.12,-1.4 6.76,-2.12 l 0,-4.36 c -3.4,0.64 -6.8,2.84 -6.8,2.84 l 0,-2.4 -4.32,0 0,20 z"
         style="font-style:normal;font-variant:normal;font-weight:600;font-stretch:normal;font-family:Titillium;-inkscape-font-specification:'Titillium Semi-Bold'"
         id="path4270"
         inkscape:connector-curvature="0" />
      <path
         d="m 65.321561,315.46817 c 0,-4.56 -2,-6.6 -6.88,-6.6 -3.68,0 -8.04,1.04 -8.04,1.04 l 0.16,3.08 c 0,0 4.84,-0.4 7.52,-0.4 1.96,0 2.92,0.68 2.92,2.88 l 0,1.44 -5.16,0.44 c -4.28,0.36 -6.6,1.8 -6.6,6.04 0,4.16 2,6.36 5.96,6.36 3.24,0 6.44,-1.48 6.44,-1.48 1.48,1.16 2.88,1.48 5.32,1.48 l 0.12,-3.32 c -1.16,-0.16 -1.68,-0.64 -1.76,-1.84 l 0,-9.12 z m -4.32,4.52 0,5.32 c 0,0 -2.68,0.88 -4.96,0.88 -1.68,0 -2.44,-1.12 -2.44,-2.92 0,-1.8 0.92,-2.68 2.76,-2.84 l 4.64,-0.44 z"
         style="font-style:normal;font-variant:normal;font-weight:600;font-stretch:normal;font-family:Titillium;-inkscape-font-specification:'Titillium Semi-Bold'"
         id="path4272"
         inkscape:connector-curvature="0" />
      <path
         d="m 69.834061,313.18817 9.64,0 -9.64,12.24 0,3.88 14.84,0 0,-3.88 -9.6,0 9.6,-12.24 0,-3.88 -14.84,0 0,3.88 z"
         style="font-style:normal;font-variant:normal;font-weight:600;font-stretch:normal;font-family:Titillium;-inkscape-font-specification:'Titillium Semi-Bold'"
         id="path4274"
         inkscape:connector-curvature="0" />
      <path
         d="m 96.959061,325.94817 c -3.32,0 -4.52,-1.6 -4.56,-4.8 l 12.399999,0 0.28,-3.12 c 0,-6.24 -2.8,-9.16 -8.399999,-9.16 -5.52,0 -8.68,3.32 -8.68,10.64 0,7.04 2.32,10.24 8.32,10.24 3.52,0 8.079999,-0.92 8.079999,-0.92 l -0.08,-3.24 c 0,0 -4.2,0.36 -7.359999,0.36 z m -4.6,-8.16 c 0.04,-3.84 1.36,-5.32 4.32,-5.32 2.92,0 4.119999,1.32 4.119999,5.32 l -8.439999,0 z"
         style="font-style:normal;font-variant:normal;font-weight:600;font-stretch:normal;font-family:Titillium;-inkscape-font-specification:'Titillium Semi-Bold'"
         id="path4276"
         inkscape:connector-curvature="0" />
      <path
         d="m 109.27156,329.30817 4.36,0 0,-13.96 c 0,0 3.12,-1.4 6.76,-2.12 l 0,-4.36 c -3.4,0.64 -6.8,2.84 -6.8,2.84 l 0,-2.4 -4.32,0 0,20 z"
         style="font-style:normal;font-variant:normal;font-weight:600;font-stretch:normal;font-family:Titillium;-inkscape-font-specification:'Titillium Semi-Bold'"
         id="path4278"
         inkscape:connector-curvature="0" />
      <path
         d="m 148.43281,329.30817 0,-3.96 -10.92,0 0,-23.44 -4.44,0 0,27.4 15.36,0 z"
         style="font-style:normal;font-variant:normal;font-weight:600;font-stretch:normal;font-family:Titillium;-inkscape-font-specification:'Titillium Semi-Bold'"
         id="path4280"
         inkscape:connector-curvature="0" />
      <path
         d="m 151.53719,329.30817 4.36,0 0,-20 -4.36,0 0,20 z m 0,-23.4 4.36,0 0,-4.6 -4.36,0 0,4.6 z"
         style="font-style:normal;font-variant:normal;font-weight:600;font-stretch:normal;font-family:Titillium;-inkscape-font-specification:'Titillium Semi-Bold'"
         id="path4282"
         inkscape:connector-curvature="0" />
      <path
         d="m 165.50656,329.30817 0,-15.52 c 0,0 2.2,-1.04 4.52,-1.04 3.04,0 3.56,1.96 3.56,5.96 l 0,10.6 4.32,0 0,-10.72 c 0,-6.56 -1.36,-9.72 -6.92,-9.72 -2.6,0 -5.52,1.68 -5.52,1.68 l 0,-1.24 -4.32,0 0,20 4.36,0 z"
         style="font-style:normal;font-variant:normal;font-weight:600;font-stretch:normal;font-family:Titillium;-inkscape-font-specification:'Titillium Semi-Bold'"
         id="path4284"
         inkscape:connector-curvature="0" />
      <path
         d="m 195.14156,309.30817 0,15.52 c 0,0 -2.16,1.04 -4.56,1.04 -3.12,0 -3.4,-1.64 -3.4,-6.08 l 0,-10.48 -4.36,0 0,10.44 c 0,7.04 1.2,10 6.92,10 2.48,0 5.4,-1.68 5.4,-1.68 l 0,1.24 4.32,0 0,-20 -4.32,0 z"
         style="font-style:normal;font-variant:normal;font-weight:600;font-stretch:normal;font-family:Titillium;-inkscape-font-specification:'Titillium Semi-Bold'"
         id="path4286"
         inkscape:connector-curvature="0" />
      <path
         d="m 202.82031,309.30817 5.8,9.96 -5.8,10.04 4.64,0 3.92,-6.84 3.96,6.84 4.64,0 -5.96,-10.16 5.96,-9.84 -4.64,0 -3.96,6.92 -3.92,-6.92 -4.64,0 z"
         style="font-style:normal;font-variant:normal;font-weight:600;font-stretch:normal;font-family:Titillium;-inkscape-font-specification:'Titillium Semi-Bold'"
         id="path4288"
         inkscape:connector-curvature="0" />
      <path
         d="m 234.09406,313.02817 0,-3.72 -5.52,0 0,-5.8 -4.32,0 0,5.8 -2.56,0 0,3.72 2.56,0 0,9.28 c 0,5.76 1.4,7.44 5.92,7.44 1.4,0 4.08,-0.52 4.08,-0.52 l -0.2,-3.48 c 0,0 -2.16,0.12 -3.28,0.12 -2.08,0 -2.2,-1.04 -2.2,-4.04 l 0,-8.8 5.52,0 z"
         style="font-style:normal;font-variant:normal;font-weight:600;font-stretch:normal;font-family:Titillium;-inkscape-font-specification:'Titillium Semi-Bold'"
         id="path4290"
         inkscape:connector-curvature="0" />
      <path
         d="m 252.43094,315.46817 c 0,-4.56 -2,-6.6 -6.88,-6.6 -3.68,0 -8.04,1.04 -8.04,1.04 l 0.16,3.08 c 0,0 4.84,-0.4 7.52,-0.4 1.96,0 2.92,0.68 2.92,2.88 l 0,1.44 -5.16,0.44 c -4.28,0.36 -6.6,1.8 -6.6,6.04 0,4.16 2,6.36 5.96,6.36 3.24,0 6.44,-1.48 6.44,-1.48 1.48,1.16 2.88,1.48 5.32,1.48 l 0.12,-3.32 c -1.16,-0.16 -1.68,-0.64 -1.76,-1.84 l 0,-9.12 z m -4.32,4.52 0,5.32 c 0,0 -2.68,0.88 -4.96,0.88 -1.68,0 -2.44,-1.12 -2.44,-2.92 0,-1.8 0.92,-2.68 2.76,-2.84 l 4.64,-0.44 z"
         style="font-style:normal;font-variant:normal;font-weight:600;font-stretch:normal;font-family:Titillium;-inkscape-font-specification:'Titillium Semi-Bold'"
         id="path4292"
         inkscape:connector-curvature="0" />
      <path
         d="m 266.18344,338.58817 c 5.36,0 9.24,-1.84 9.24,-6.56 0,-4.6 -1.96,-5.92 -8.28,-5.96 -3.88,-0.04 -4.32,-0.28 -4.32,-1.56 0,-0.52 0.56,-1.88 0.56,-1.88 0.36,0.08 1.36,0.16 1.76,0.16 5.32,0 8.16,-1.48 8.16,-6.92 0,-1.56 -0.56,-2.6 -1.08,-3.28 l 3.32,0.2 0,-3.52 -6.2,0.16 c 0,0 -2.24,-0.52 -4.08,-0.52 -4.6,0 -8,1.92 -8,6.96 0,3.6 1.4,5.12 2.88,6 0,0 -1.44,2.28 -1.44,3.2 0,1.24 0.48,2.36 1.32,2.92 -2.04,1.56 -3.04,2.8 -3.04,4.84 0,4.56 3.16,5.76 9.2,5.76 z m 0.6,-8.76 c 3.24,0.04 4.28,0.28 4.28,2.44 0,1.96 -1.6,2.76 -4.84,2.76 -3.64,0 -4.96,-0.76 -4.96,-2.6 0,-1.24 0.48,-1.92 1.6,-2.84 0,0 2.68,0.24 3.92,0.24 z m -1.52,-10.4 c -2.56,0 -3.68,-1.12 -3.68,-3.56 0,-2.4 1.12,-3.56 3.68,-3.56 2.68,0 3.72,1.16 3.72,3.56 0,2.44 -1.04,3.56 -3.72,3.56 z"
         style="font-style:normal;font-variant:normal;font-weight:600;font-stretch:normal;font-family:Titillium;-inkscape-font-specification:'Titillium Semi-Bold'"
         id="path4294"
         inkscape:connector-curvature="0" />
      <path
         d="m 286.95906,325.94817 c -3.32,0 -4.52,-1.6 -4.56,-4.8 l 12.4,0 0.28,-3.12 c 0,-6.24 -2.8,-9.16 -8.4,-9.16 -5.52,0 -8.68,3.32 -8.68,10.64 0,7.04 2.32,10.24 8.32,10.24 3.52,0 8.08,-0.92 8.08,-0.92 l -0.08,-3.24 c 0,0 -4.2,0.36 -7.36,0.36 z m -4.6,-8.16 c 0.04,-3.84 1.36,-5.32 4.32,-5.32 2.92,0 4.12,1.32 4.12,5.32 l -8.44,0 z"
         style="font-style:normal;font-variant:normal;font-weight:600;font-stretch:normal;font-family:Titillium;-inkscape-font-specification:'Titillium Semi-Bold'"
         id="path4296"
         inkscape:connector-curvature="0" />
      <path
         d="m 325.13969,329.30817 0,-3.88 -11.92,0 5.64,-5.48 c 4.08,-3.8 5.76,-6.12 5.76,-10.12 0,-4.96 -2.68,-7.36 -8.52,-7.36 -3.92,0 -7.8,1.16 -7.8,1.16 l 0.28,3.52 c 0,0 3.68,-0.72 6.48,-0.72 3.4,0 4.96,0.96 4.96,3.96 0,2.8 -1.96,4.92 -5.36,8.4 l -6.52,6.72 0,3.8 17,0 z"
         style="font-style:normal;font-variant:normal;font-weight:600;font-stretch:normal;font-family:Titillium;-inkscape-font-specification:'Titillium Semi-Bold'"
         id="path4298"
         inkscape:connector-curvature="0" />
      <path
         d="m 339.08156,302.46817 c -6.36,0 -10,3.56 -10,13.92 0,10.08 3.68,13.36 10,13.36 6.32,0 9.96,-3.32 9.96,-13.36 0,-10.4 -3.56,-13.92 -9.96,-13.92 z m 0,3.88 c 3.72,0 5.36,2.28 5.36,10.04 0,7.24 -1.72,9.48 -5.32,9.48 -3.64,0 -5.44,-2.24 -5.44,-9.48 0,-7.8 1.72,-10.04 5.4,-10.04 z"
         style="font-style:normal;font-variant:normal;font-weight:600;font-stretch:normal;font-family:Titillium;-inkscape-font-specification:'Titillium Semi-Bold'"
         id="path4300"
         inkscape:connector-curvature="0" />
      <path
         d="m 353.82344,308.62817 2.04,3.32 6.2,-4 0,21.36 4.44,0 0,-26.4 -4.08,0 -8.6,5.72 z"
         style="font-style:normal;font-variant:normal;font-weight:600;font-stretch:normal;font-family:Titillium;-inkscape-font-specification:'Titillium Semi-Bold'"
         id="path4302"
         inkscape:connector-curvature="0" />
      <path
         d="m 383.84531,302.46817 c -5.76,0 -9.48,2.44 -9.48,7 0,3.04 0.92,4.52 3.4,6.16 -2.36,1.64 -3.84,3.12 -3.84,6.96 0,5.52 4.48,7.16 9.92,7.16 5.52,0 10.04,-1.92 10.04,-7.6 0,-3.52 -1.48,-4.96 -3.92,-6.52 2.6,-1.64 3.52,-2.84 3.52,-6.12 0,-4.64 -3.96,-7.04 -9.64,-7.04 z m 0,23.28 c -3.16,0 -5.16,-1.16 -5.16,-4.12 0,-2 1.12,-3.2 3.24,-3.88 l 3.84,0 c 2.04,0.64 3.36,1.72 3.36,3.8 0,3.04 -2.04,4.2 -5.28,4.2 z m 0.04,-19.28 c 3.08,0 4.84,1.2 4.84,3.68 0,1.8 -1.08,2.92 -2.96,3.8 l -3.84,0 c -1.84,-0.92 -2.8,-2 -2.8,-3.8 0,-2.52 1.76,-3.68 4.76,-3.68 z"
         style="font-style:normal;font-variant:normal;font-weight:600;font-stretch:normal;font-family:Titillium;-inkscape-font-specification:'Titillium Semi-Bold'"
         id="path4304"
         inkscape:connector-curvature="0" />
    </g>
    <g
       style="font-style:normal;font-variant:normal;font-weight:normal;font-stretch:normal;font-size:40px;line-height:125%;font-family:'Source Sans Pro';-inkscape-font-specification:'Source Sans Pro';text-align:center;letter-spacing:0px;word-spacing:0px;text-anchor:middle;fill:#000000;fill-opacity:1;stroke:none;stroke-width:1px;stroke-linecap:butt;stroke-linejoin:miter;stroke-opacity:1"
       id="text4166"
       transform="translate(3.6584291,0)">
      <path
         d="m 22.897192,214.61102 5.12,0 0,9.36 c -1.32,0.24 -4.28,0.64 -6.36,0.64 -6.76,0 -8.2,-4.16 -8.2,-11.96 0,-7.88 1.44,-12.16 8.24,-12.16 3.64,0 8.64,0.92 8.64,0.92 l 0.12,-2.12 c 0,0 -4.76,-1.04 -8.96,-1.04 -8.4,0 -10.6,5.36 -10.6,14.4 0,8.92 2.24,14.2 10.64,14.2 2.88,0 7.84,-0.76 8.92,-1 l 0,-13.44 -7.56,0 0,2.2 z"
         style="font-style:normal;font-variant:normal;font-weight:300;font-stretch:normal;font-family:Titillium;-inkscape-font-specification:'Titillium Light'"
         id="path4307"
         inkscape:connector-curvature="0" />
      <path
         d="m 36.184692,226.45102 2.36,0 0,-15 c 0,0 3.72,-2.2 7.56,-3 l 0,-2.4 c -4.08,0.76 -7.56,3.28 -7.56,3.28 l 0,-2.88 -2.36,0 0,20 z"
         style="font-style:normal;font-variant:normal;font-weight:300;font-stretch:normal;font-family:Titillium;-inkscape-font-specification:'Titillium Light'"
         id="path4309"
         inkscape:connector-curvature="0" />
      <path
         d="m 63.538442,212.41102 c 0,-4.24 -1.84,-6.36 -6.2,-6.36 -3.36,0 -7.76,0.84 -7.76,0.84 l 0.12,1.92 c 0,0 4.68,-0.6 7.56,-0.6 2.56,0 3.92,1.16 3.92,4.2 l 0,1.88 -6.8,0.68 c -4.04,0.4 -5.88,2.16 -5.88,5.84 0,4 1.96,6.04 5.48,6.04 3.76,0 7.52,-1.64 7.52,-1.64 1.08,1.2 2.56,1.6 4.52,1.6 l 0.12,-1.92 c -1.32,-0.16 -2.48,-0.56 -2.6,-1.76 l 0,-10.72 z m -2.36,3.76 0,7.24 c 0,0 -3.64,1.4 -6.88,1.4 -2.2,0 -3.32,-1.48 -3.32,-4.04 0,-2.4 1,-3.68 3.68,-3.92 l 6.52,-0.68 z"
         style="font-style:normal;font-variant:normal;font-weight:300;font-stretch:normal;font-family:Titillium;-inkscape-font-specification:'Titillium Light'"
         id="path4311"
         inkscape:connector-curvature="0" />
      <path
         d="m 68.380317,208.61102 11.88,0 -11.88,15.68 0,2.16 14.84,0 0,-2.16 -11.88,0 11.88,-15.68 0,-2.16 -14.84,0 0,2.16 z"
         style="font-style:normal;font-variant:normal;font-weight:300;font-stretch:normal;font-family:Titillium;-inkscape-font-specification:'Titillium Light'"
         id="path4313"
         inkscape:connector-curvature="0" />
      <path
         d="m 94.867192,224.69102 c -4.2,0 -5.56,-2.52 -5.56,-7.24 l 13.599998,0 0.08,-1.92 c 0,-6.72 -2.72,-9.48 -7.879998,-9.48 -4.88,0 -8.24,2.76 -8.24,10.48 0,6.68 1.8,10.28 7.76,10.32 3.12,0 7.639998,-0.56 7.639998,-0.56 l -0.08,-1.96 c 0,0 -4.399998,0.36 -7.319998,0.36 z m -5.56,-9.24 c 0,-5.32 2.16,-7.32 5.8,-7.32 3.76,0 5.479998,1.92 5.479998,7.32 l -11.279998,0 z"
         style="font-style:normal;font-variant:normal;font-weight:300;font-stretch:normal;font-family:Titillium;-inkscape-font-specification:'Titillium Light'"
         id="path4315"
         inkscape:connector-curvature="0" />
      <path
         d="m 107.90344,226.45102 2.36,0 0,-15 c 0,0 3.72,-2.2 7.56,-3 l 0,-2.4 c -4.08,0.76 -7.56,3.28 -7.56,3.28 l 0,-2.88 -2.36,0 0,20 z"
         style="font-style:normal;font-variant:normal;font-weight:300;font-stretch:normal;font-family:Titillium;-inkscape-font-specification:'Titillium Light'"
         id="path4317"
         inkscape:connector-curvature="0" />
      <path
         d="m 146.00532,226.45102 0,-2.24 -12.72,0 0,-25.56 -2.48,0 0,27.8 15.2,0 z"
         style="font-style:normal;font-variant:normal;font-weight:300;font-stretch:normal;font-family:Titillium;-inkscape-font-specification:'Titillium Light'"
         id="path4319"
         inkscape:connector-curvature="0" />
      <path
         d="m 149.54407,226.45102 2.36,0 0,-20 -2.36,0 0,20 z m 0,-25 2.36,0 0,-3 -2.36,0 0,3 z"
         style="font-style:normal;font-variant:normal;font-weight:300;font-stretch:normal;font-family:Titillium;-inkscape-font-specification:'Titillium Light'"
         id="path4321"
         inkscape:connector-curvature="0" />
      <path
         d="m 160.26344,226.45102 0,-16.56 c 0,0 3.04,-1.68 6.16,-1.68 4,0 4.64,1.96 4.64,7.84 l 0,10.4 2.4,0 0,-10.52 c 0,-7.32 -1.2,-9.88 -6.68,-9.88 -3.16,0 -6.52,1.88 -6.52,1.88 l 0,-1.48 -2.36,0 0,20 2.36,0 z"
         style="font-style:normal;font-variant:normal;font-weight:300;font-stretch:normal;font-family:Titillium;-inkscape-font-specification:'Titillium Light'"
         id="path4323"
         inkscape:connector-curvature="0" />
      <path
         d="m 191.87157,206.45102 0,16.56 c 0,0 -2.72,1.68 -5.88,1.68 -4,0 -4.6,-1.88 -4.6,-7.84 l 0,-10.4 -2.36,0 0,10.44 c 0,7.48 1.12,9.96 6.68,9.96 3.08,0 6.16,-1.88 6.16,-1.88 l 0,1.48 2.36,0 0,-20 -2.36,0 z"
         style="font-style:normal;font-variant:normal;font-weight:300;font-stretch:normal;font-family:Titillium;-inkscape-font-specification:'Titillium Light'"
         id="path4325"
         inkscape:connector-curvature="0" />
      <path
         d="m 198.20719,206.45102 6.44,10 -6.44,10 2.68,0 5.28,-8.2 5.28,8.2 2.64,0 -6.48,-10.04 6.52,-9.96 -2.68,0 -5.28,8.24 -5.28,-8.24 -2.68,0 z"
         style="font-style:normal;font-variant:normal;font-weight:300;font-stretch:normal;font-family:Titillium;-inkscape-font-specification:'Titillium Light'"
         id="path4327"
         inkscape:connector-curvature="0" />
      <path
         d="m 228.17969,208.57102 0,-2.12 -6.68,0 0,-6.28 -2.4,0 0,6.28 -2.96,0 0,2.12 2.96,0 0,11.08 c 0,5.76 1.44,7.24 5.4,7.24 1.4,0 4.04,-0.4 4.04,-0.4 l -0.16,-2.04 c 0,0 -2.56,0.28 -3.68,0.28 -2.88,0 -3.2,-1.28 -3.2,-6.28 l 0,-9.88 6.68,0 z"
         style="font-style:normal;font-variant:normal;font-weight:300;font-stretch:normal;font-family:Titillium;-inkscape-font-specification:'Titillium Light'"
         id="path4329"
         inkscape:connector-curvature="0" />
      <path
         d="m 245.72594,212.41102 c 0,-4.24 -1.84,-6.36 -6.2,-6.36 -3.36,0 -7.76,0.84 -7.76,0.84 l 0.12,1.92 c 0,0 4.68,-0.6 7.56,-0.6 2.56,0 3.92,1.16 3.92,4.2 l 0,1.88 -6.8,0.68 c -4.04,0.4 -5.88,2.16 -5.88,5.84 0,4 1.96,6.04 5.48,6.04 3.76,0 7.52,-1.64 7.52,-1.64 1.08,1.2 2.56,1.6 4.52,1.6 l 0.12,-1.92 c -1.32,-0.16 -2.48,-0.56 -2.6,-1.76 l 0,-10.72 z m -2.36,3.76 0,7.24 c 0,0 -3.64,1.4 -6.88,1.4 -2.2,0 -3.32,-1.48 -3.32,-4.04 0,-2.4 1,-3.68 3.68,-3.92 l 6.52,-0.68 z"
         style="font-style:normal;font-variant:normal;font-weight:300;font-stretch:normal;font-family:Titillium;-inkscape-font-specification:'Titillium Light'"
         id="path4331"
         inkscape:connector-curvature="0" />
      <path
         d="m 259.32782,235.93102 c 5.76,0 8.76,-1.84 8.76,-6.32 0,-4.84 -2.04,-5.8 -7.48,-5.8 -4.76,-0.04 -5.08,-0.24 -5.08,-1.96 0,-0.52 0.8,-2.48 0.8,-2.48 0.44,0.08 1.68,0.16 2.04,0.16 5.04,0 7.56,-1.6 7.56,-6.68 0,-2.36 -0.6,-3.52 -1.44,-4.36 l 4,0.08 0,-2.12 -5.8,0.12 c 0,0 -2.12,-0.52 -4.2,-0.52 -4.36,0 -7.24,1.92 -7.24,6.8 0,3.72 1.56,5.32 3.28,6.04 0,0 -1.28,2.44 -1.28,3.12 0,1.24 0.32,2.28 1,2.72 -2.12,1.56 -3.24,2.6 -3.24,5.04 0,4.64 1.88,6.16 8.32,6.16 z m 1.12,-10 c 3.76,0 5.2,0.36 5.2,3.76 0,2.96 -1.88,4.16 -6.28,4.16 -4.88,0 -5.96,-1.12 -5.96,-4.24 0,-1.72 0.6,-2.48 2.52,-3.84 0,0 3,0.16 4.52,0.16 z m -1.96,-8.4 c -3.36,0 -4.8,-1.24 -4.8,-4.68 0,-3.48 1.44,-4.8 4.8,-4.8 3.68,0 5,1.32 5,4.8 0,3.44 -1.32,4.68 -5,4.68 z"
         style="font-style:normal;font-variant:normal;font-weight:300;font-stretch:normal;font-family:Titillium;-inkscape-font-specification:'Titillium Light'"
         id="path4333"
         inkscape:connector-curvature="0" />
      <path
         d="m 279.39844,224.69102 c -4.2,0 -5.56,-2.52 -5.56,-7.24 l 13.6,0 0.08,-1.92 c 0,-6.72 -2.72,-9.48 -7.88,-9.48 -4.88,0 -8.24,2.76 -8.24,10.48 0,6.68 1.8,10.28 7.76,10.32 3.12,0 7.64,-0.56 7.64,-0.56 l -0.08,-1.96 c 0,0 -4.4,0.36 -7.32,0.36 z m -5.56,-9.24 c 0,-5.32 2.16,-7.32 5.8,-7.32 3.76,0 5.48,1.92 5.48,7.32 l -11.28,0 z"
         style="font-style:normal;font-variant:normal;font-weight:300;font-stretch:normal;font-family:Titillium;-inkscape-font-specification:'Titillium Light'"
         id="path4335"
         inkscape:connector-curvature="0" />
      <path
         d="m 317.90282,226.45102 0,-2.16 -13.84,0 7.68,-7.92 c 3.52,-3.48 5.4,-5.8 5.4,-9.76 0,-4.96 -2.84,-6.96 -8.28,-6.96 -3.8,0 -7.56,1.08 -7.56,1.08 l 0.2,2.12 c 0,0 4,-0.96 6.96,-0.96 4,0 6.12,1.24 6.12,4.92 0,3.28 -2.04,5.44 -5.28,8.84 l -8.24,8.72 0,2.08 16.84,0 z"
         style="font-style:normal;font-variant:normal;font-weight:300;font-stretch:normal;font-family:Titillium;-inkscape-font-specification:'Titillium Light'"
         id="path4337"
         inkscape:connector-curvature="0" />
      <path
         d="m 331.84469,199.65102 c -5.96,0 -9.44,3 -9.44,14.08 0,10.24 3.56,13.12 9.48,13.12 5.88,0 9.44,-3 9.44,-13.12 0,-11.08 -3.32,-14.08 -9.48,-14.08 z m 0,2.2 c 4.72,0 6.92,2.48 6.92,11.88 0,8.72 -2.48,10.88 -6.88,10.88 -4.4,0 -6.92,-2.12 -6.92,-10.84 0,-9.56 2.28,-11.92 6.88,-11.92 z"
         style="font-style:normal;font-variant:normal;font-weight:300;font-stretch:normal;font-family:Titillium;-inkscape-font-specification:'Titillium Light'"
         id="path4339"
         inkscape:connector-curvature="0" />
      <path
         d="m 347.70657,205.57102 1.16,1.92 7.04,-4.72 0,23.68 2.44,0 0,-26.4 -2.32,0 -8.32,5.52 z"
         style="font-style:normal;font-variant:normal;font-weight:300;font-stretch:normal;font-family:Titillium;-inkscape-font-specification:'Titillium Light'"
         id="path4341"
         inkscape:connector-curvature="0" />
      <path
         d="m 376.64844,199.65102 c -5.76,0 -9.4,2.16 -9.4,6.72 0,3.4 1.56,4.96 4.44,6.24 -2.84,1.4 -4.88,2.88 -4.88,7.12 0,5.44 4.56,7.12 9.84,7.12 5.48,0 9.92,-1.68 9.92,-7.56 0,-3.92 -2.16,-5.52 -5.2,-6.68 3.28,-1.24 4.8,-2.76 4.8,-6.2 0,-4.64 -3.84,-6.76 -9.52,-6.76 z m 0,24.92 c -4,0 -7.16,-1.24 -7.16,-5.2 0,-3.32 1.8,-4.76 4.8,-5.56 l 4.4,0 c 2.92,0.76 5.28,1.76 5.28,5.32 0,4.24 -3.12,5.44 -7.32,5.44 z m 0,-22.68 c 4.28,0 6.88,1.32 6.88,4.76 0,2.72 -1.76,4.12 -4.84,5 l -4.4,0 c -2.92,-0.96 -4.4,-2.28 -4.4,-5.04 0,-3.48 2.56,-4.72 6.76,-4.72 z"
         style="font-style:normal;font-variant:normal;font-weight:300;font-stretch:normal;font-family:Titillium;-inkscape-font-specification:'Titillium Light'"
         id="path4343"
         inkscape:connector-curvature="0" />
    </g>
  </g>
</svg>
